<?xml version="1.0" encoding="UTF-8" standalone="no"?>
<!-- Created with Inkscape (http://www.inkscape.org/) -->

<svg
   xmlns:dc="http://purl.org/dc/elements/1.1/"
   xmlns:cc="http://creativecommons.org/ns#"
   xmlns:rdf="http://www.w3.org/1999/02/22-rdf-syntax-ns#"
   xmlns:svg="http://www.w3.org/2000/svg"
   xmlns="http://www.w3.org/2000/svg"
   xmlns:sodipodi="http://sodipodi.sourceforge.net/DTD/sodipodi-0.dtd"
   xmlns:inkscape="http://www.inkscape.org/namespaces/inkscape"
   width="218.21571"
   height="110.10534"
   viewBox="0 0 57.736239 29.132037"
   version="1.1"
   id="svg15175"
   inkscape:version="0.92.0 r15299"
   sodipodi:docname="monitise.svg">
  <defs
     id="defs15169">
    <clipPath
       id="clipPath15024"
       clipPathUnits="userSpaceOnUse">
      <path
         inkscape:connector-curvature="0"
         id="path15022"
         d="m 216.556,426.32 h 162.163 v 81.082 H 216.556 Z" />
    </clipPath>
  </defs>
  <sodipodi:namedview
     id="base"
     pagecolor="#ffffff"
     bordercolor="#666666"
     borderopacity="1.0"
     inkscape:pageopacity="0.0"
     inkscape:pageshadow="2"
     inkscape:zoom="4.1486344"
     inkscape:cx="108.10786"
     inkscape:cy="54.053943"
     inkscape:document-units="mm"
     inkscape:current-layer="layer1"
     showgrid="false"
     fit-margin-top="0"
     fit-margin-left="0"
     fit-margin-right="0"
     fit-margin-bottom="0"
     units="px"
     inkscape:window-width="1280"
     inkscape:window-height="744"
     inkscape:window-x="-4"
     inkscape:window-y="-4"
     inkscape:window-maximized="1" />
  <metadata
     id="metadata15172">
    <rdf:RDF>
      <cc:Work
         rdf:about="">
        <dc:format>image/svg+xml</dc:format>
        <dc:type
           rdf:resource="http://purl.org/dc/dcmitype/StillImage" />
        <dc:title></dc:title>
      </cc:Work>
    </rdf:RDF>
  </metadata>
  <g
     inkscape:label="Layer 1"
     inkscape:groupmode="layer"
     id="layer1"
     transform="translate(8.1928245,-134.75903)">
    <g
       id="g15300"
       transform="translate(0.26458168,-0.26457694)">
      <path
         d="m 0.78854478,156.07101 c -0.26846388,-0.0783 -0.55985832,-0.11889 -0.87524165,-0.11889 -0.93768333,0 -1.69333333,0.29351 -2.24613603,0.87242 -0.1139472,0.11924 -0.212725,0.24589 -0.3002139,0.37642 -0.3633611,-0.6096 -0.9415639,-1.07598 -1.7596555,-1.19063 -0.1869722,-0.0374 -0.3831167,-0.0582 -0.5898445,-0.0582 -0.8745361,0 -1.5913805,0.25965 -2.1378332,0.76518 v -0.0759 c 0,-0.32208 -0.2367139,-0.57115 -0.5432778,-0.57115 -0.2924528,0 -0.5291667,0.26353 -0.5291667,0.57115 v 6.57578 c 0,0.32244 0.2367139,0.5715 0.5432778,0.5715 0.3065639,0 0.5291667,-0.24906 0.5291667,-0.5715 v -3.8227 c 0,-1.29999 0.7549444,-2.2546 1.7861138,-2.37384 0.006,-7.1e-4 0.011994,-10e-4 0.017992,-0.002 0.066322,-0.007 0.1337027,-0.0113 0.2024944,-0.0113 1.1426472,0 1.8531416,0.83503 1.8531416,2.25566 v 3.95429 c 0,0.32244 0.2367139,0.5715 0.5295195,0.5715 0.3062111,0 0.5432777,-0.24906 0.5432777,-0.5715 v -3.86645 c 0,-1.49401 0.8918222,-2.3435 1.97837777,-2.3435 1.17051664,0 1.86725273,0.82056 1.86725273,2.28494 v 3.92501 c 0,0.32244 0.2367139,0.5715 0.5432778,0.5715 0.2924527,0 0.5295194,-0.24906 0.5295194,-0.5715 v -4.18853 c 0,-1.57903 -0.7239,-2.65607 -1.94204162,-2.95769"
         style="fill:#000000;fill-opacity:1;fill-rule:nonzero;stroke:none;stroke-width:0.35277778"
         id="path15028"
         inkscape:connector-curvature="0" />
      <path
         d="m 11.026508,159.96603 c 0,1.59632 -1.1422944,2.91465 -2.782711,2.91465 -1.5966722,0 -2.7975278,-1.31833 -2.7975278,-2.94393 v -0.0293 c 0,-1.59667 1.1278306,-2.92911 2.7682472,-2.92911 1.5963194,0 2.8119916,1.33244 2.8119916,2.95839 z m -2.782711,-3.98392 c -2.2849417,0 -3.9546389,1.8161 -3.9546389,3.95464 v 0.0293 c 0,2.13819 1.6552333,3.92501 3.9253583,3.92501 2.2845886,0 3.9691026,-1.81575 3.9691026,-3.95429 v -0.0293 c 0,-2.13854 -1.669697,-3.92536 -3.939822,-3.92536"
         style="fill:#000000;fill-opacity:1;fill-rule:nonzero;stroke:none;stroke-width:0.35277778"
         id="path15032"
         inkscape:connector-curvature="0" />
      <path
         d="m 18.339803,156.07546 c -0.311856,-0.0892 -0.653344,-0.13582 -1.025878,-0.13582 -1.109133,0 -1.841147,0.35772 -2.354439,0.84067 v -0.13899 c 0,-0.32209 -0.248708,-0.57115 -0.570794,-0.57115 -0.307622,0 -0.556683,0.26352 -0.556683,0.57115 v 6.57613 c 0,0.32243 0.249414,0.57114 0.5715,0.57114 0.322086,0 0.555977,-0.24871 0.555977,-0.57114 v -3.83717 c 0,-1.42099 0.94615,-2.37278 2.249664,-2.37278 1.333147,0 2.073981,0.87877 2.073981,2.28494 v 3.92501 c 0,0.32243 0.248708,0.57114 0.571147,0.57114 0.307622,0 0.556683,-0.24871 0.556683,-0.57114 v -4.20335 c 0,-1.51659 -0.739422,-2.62467 -2.071158,-2.93864"
         style="fill:#000000;fill-opacity:1;fill-rule:nonzero;stroke:none;stroke-width:0.35277778"
         id="path15036"
         inkscape:connector-curvature="0" />
      <path
         d="m 20.414666,148.29622 h -0.0074 c -0.07867,-3.51472 -2.911475,-6.34753 -6.4262,-6.42585 v -0.007 c 3.514725,-0.0783 6.347883,-2.91147 6.4262,-6.42655 h 0.0074 c 0.07832,3.51473 2.911122,6.34753 6.425142,6.4262 v 0.008 c -3.51402,0.0787 -6.346473,2.91183 -6.425142,6.42585 m 6.575072,-6.42973 c -3.53e-4,0 -3.53e-4,0 0,0 0,-3.62585 -2.9337,-6.5659 -6.556375,-6.57824 v -7.1e-4 h -0.0448 v 7.1e-4 c -3.614913,0.012 -6.542969,2.93969 -6.555669,6.55461 l -7.05e-4,0.0448 h 7.05e-4 c 0.01129,3.61632 2.939697,6.54508 6.555669,6.55708 l 0.0448,3.5e-4 v -3.5e-4 c 3.622675,-0.012 6.556375,-2.9524 6.556375,-6.57825"
         style="fill:#000000;fill-opacity:1;fill-rule:nonzero;stroke:none;stroke-width:0.35277778"
         id="path15040"
         inkscape:connector-curvature="0" />
      <path
         d="m 26.087262,161.70872 c 0,1.53811 0.922867,2.13854 2.138539,2.13854 0.439208,0 0.790575,-0.073 1.113014,-0.20532 0.1905,-0.073 0.322086,-0.23424 0.322086,-0.43921 0,-0.26352 -0.219781,-0.48295 -0.483306,-0.48295 -0.08784,0 -0.292805,0.10231 -0.688269,0.10231 -0.761647,0 -1.274233,-0.33691 -1.274233,-1.25977 v -4.42278 h 1.962502 c 0.277989,0 0.512586,-0.21978 0.512586,-0.49812 0,-0.26388 -0.234597,-0.49777 -0.512586,-0.49777 h -1.962502 v -1.78717 c 0,-0.30762 -0.263525,-0.57115 -0.571148,-0.57115 -0.322439,0 -0.556683,0.26353 -0.556683,0.57115 z"
         style="fill:#000000;fill-opacity:1;fill-rule:nonzero;stroke:none;stroke-width:0.35277778"
         id="path15044"
         inkscape:connector-curvature="0" />
      <path
         d="m 37.810067,159.39471 c -1.010356,-0.30727 -1.948039,-0.58561 -1.948039,-1.30351 v -0.0289 c 3.53e-4,-0.63006 0.5715,-1.09855 1.464733,-1.09855 0.644525,0 1.332795,0.21978 1.97732,0.58596 0.05856,0.0289 0.146403,0.0582 0.249061,0.0582 0.278342,0 0.497769,-0.21943 0.497769,-0.4833 0,-0.21979 -0.131586,-0.38065 -0.278341,-0.46885 -0.732014,-0.39511 -1.610784,-0.64417 -2.416175,-0.64417 -1.494014,0 -2.577747,0.86395 -2.577747,2.16747 v 0.0293 c 0,1.39135 1.317977,1.80163 2.504369,2.13854 0.995892,0.27834 1.889478,0.57114 1.889478,1.33279 v 0.0289 c 0,0.73272 -0.659342,1.20121 -1.567392,1.20121 -0.820208,0 -1.6256,-0.27834 -2.401711,-0.80539 -0.07338,-0.0586 -0.176036,-0.0879 -0.278342,-0.0879 -0.278341,0 -0.498122,0.21978 -0.498122,0.48331 0,0.19015 0.102659,0.3369 0.204964,0.40993 0.820208,0.58596 1.918758,0.95214 2.91465,0.95214 1.508478,0 2.694869,-0.83502 2.694869,-2.27012 v -0.0293 c 0,-1.36208 -1.259416,-1.8161 -2.431344,-2.16782"
         style="fill:#000000;fill-opacity:1;fill-rule:nonzero;stroke:none;stroke-width:0.35277778"
         id="path15048"
         inkscape:connector-curvature="0" />
      <path
         d="m 43.009623,159.51197 c 0.146403,-1.4792 1.142294,-2.57775 2.460272,-2.57775 1.508478,0 2.299406,1.20086 2.416881,2.57775 z m 6.00463,0.30762 c 0,-2.0066 -1.27388,-3.83751 -3.514724,-3.83751 -2.094442,0 -3.6322,1.75789 -3.6322,3.93982 v 0.0296 c 0,2.34315 1.698625,3.93947 3.778249,3.93947 1.28905,0 2.138539,-0.45402 2.856089,-1.14229 0.117123,-0.10266 0.176036,-0.23425 0.176036,-0.36619 0,-0.26352 -0.21978,-0.48295 -0.498122,-0.48295 -0.131939,0 -0.234244,0.0582 -0.322086,0.13159 -0.55633,0.51258 -1.244953,0.87877 -2.182636,0.87877 -1.347258,0 -2.504017,-0.92287 -2.665236,-2.56294 h 5.47758 c 0.278342,0 0.52705,-0.21978 0.52705,-0.5274"
         style="fill:#000000;fill-opacity:1;fill-rule:nonzero;stroke:none;stroke-width:0.35277778"
         id="path15052"
         inkscape:connector-curvature="0" />
      <path
         d="m 23.169013,156.0702 c -0.307622,0 -0.556683,0.26352 -0.556683,0.57115 v 6.57577 c 0,0.3228 0.249061,0.5715 0.571147,0.5715 0.322086,0 0.556683,-0.2487 0.556683,-0.5715 v -6.57577 c 0,-0.32209 -0.249061,-0.57115 -0.571147,-0.57115"
         style="fill:#000000;fill-opacity:1;fill-rule:nonzero;stroke:none;stroke-width:0.35277778"
         id="path15056"
         inkscape:connector-curvature="0" />
      <path
         d="m 23.176316,153.67608 c -0.378178,0 -0.684389,0.30621 -0.684389,0.68404 0,0.37817 0.306211,0.68438 0.684389,0.68438 0.377825,0 0.684036,-0.30621 0.684036,-0.68438 0,-0.37783 -0.306211,-0.68404 -0.684036,-0.68404"
         style="fill:#000000;fill-opacity:1;fill-rule:nonzero;stroke:none;stroke-width:0.35277778"
         id="path15060"
         inkscape:connector-curvature="0" />
      <path
         d="m 32.049876,156.0702 c -0.307622,0 -0.556683,0.26352 -0.556683,0.57115 v 6.57577 c 0,0.3228 0.249061,0.5715 0.5715,0.5715 0.322086,0 0.55633,-0.2487 0.55633,-0.5715 v -6.57577 c 0,-0.32209 -0.249061,-0.57115 -0.571147,-0.57115"
         style="fill:#000000;fill-opacity:1;fill-rule:nonzero;stroke:none;stroke-width:0.35277778"
         id="path15064"
         inkscape:connector-curvature="0" />
      <path
         d="m 32.057144,153.67608 c -0.377825,0 -0.684036,0.30621 -0.684036,0.68404 0,0.37817 0.306211,0.68438 0.684036,0.68438 0.378178,0 0.684036,-0.30621 0.684036,-0.68438 0,-0.37783 -0.305858,-0.68404 -0.684036,-0.68404"
         style="fill:#000000;fill-opacity:1;fill-rule:nonzero;stroke:none;stroke-width:0.35277778"
         id="path15068"
         inkscape:connector-curvature="0" />
    </g>
  </g>
</svg>
